<?xml version="1.0" standalone="no"?>
<!DOCTYPE svg PUBLIC "-//W3C//DTD SVG 1.1//EN" "http://www.w3.org/Graphics/SVG/1.1/DTD/svg11.dtd" >
<svg>
<metadata>
Created by FontForge 20120731 at Wed Aug 31 23:59:37 2016
 By ,,,
</metadata>
<defs>
<font id="hofstatt" horiz-adv-x="512" >
  <font-face 
    font-family="hofstatt"
    font-weight="400"
    font-stretch="normal"
    units-per-em="512"
    panose-1="2 0 5 9 0 0 0 0 0 0"
    ascent="480"
    descent="-32"
    x-height="471"
    cap-height="471"
    bbox="25 40 487.5 504"
    underline-thickness="0"
    underline-position="0"
    unicode-range="U+0021-007E"
  />
<missing-glyph 
 />
    <glyph glyph-name=".notdef" 
 />
    <glyph glyph-name=".notdef" 
 />
    <glyph glyph-name=".null" horiz-adv-x="0" 
 />
    <glyph glyph-name="nonmarkingreturn" 
 />
    <glyph glyph-name="zero" unicode="0" 
d="M385 41h86v430h-430v-258h86v172h258v-258h-258v86h-86v-172h344z" />
    <glyph glyph-name="one" unicode="1" 
d="M384 41h86v86h-172v344h-258v-86h172v-258h-172v-86h344z" />
    <glyph glyph-name="two" unicode="2" 
d="M126 213h344v258h-430v-86h344v-86h-258h-86v-86h86zM384 41h86v86h-344v86h-86v-172h344z" />
    <glyph glyph-name="three" unicode="3" 
d="M384 41h86v430h-430v-86h344v-86h-258h-86v-86h86h258v-86h-344v-86h344z" />
    <glyph glyph-name="four" unicode="4" 
d="M126 471h-86v-258h86h173v-172h86v172h86v86h-86v172h-86v-172h-173v172z" />
    <glyph glyph-name="five" unicode="5" 
d="M470 213h-86v-86h-344v-86h430v172zM126 471h-86v-258h344h86v86h-86h-258v86h344v86h-344z" />
    <glyph glyph-name="six" unicode="6" 
d="M126 471h-86v-430h430v172h-86v-86h-258v86h258h86v86h-86h-258v172zM384 385h86v86h-344v-86h258z" />
    <glyph glyph-name="seven" unicode="7" 
d="M431 346l40 39l-1 1v85h-430v-86h310l-19 -18l-40 -40l-39 -40l-38 -37h-2v-86v-122h86v170l15 15l39 39l40 40z" />
    <glyph glyph-name="eight" unicode="8" 
d="M385 471h-344v-430h430v430h-86zM385 128h-258h1v84h-1h258h-1v-84h1zM384 300h-256v84h-1h258h-1v-84z" />
    <glyph glyph-name="nine" unicode="9" 
d="M126 471h-86v-172h86v86h258v-86h-258h-86v-86h86h258v-172h86v430h-344z" />
    <glyph glyph-name="a" unicode="a" 
d="M385 127h-258v86h258v-86zM385 41h86v430h-430v-86h344v-86h-344v-258h344z" />
    <glyph glyph-name="b" unicode="b" 
d="M299 299h-172v86h172v-86zM385 41h86v258h-86v172h-344v-258h86h258v-86h-258v86h-86v-172h344z" />
    <glyph glyph-name="c" unicode="c" 
d="M385 41h86v86h-344v258h344v86h-430v-430h344z" />
    <glyph glyph-name="d" unicode="d" 
d="M385 248l-18 -17l-43 -43l-43 -43l-17 -18h-137v258h258v-137zM471 213v0v43v215h-430v-86v-344h86h172v0l43 43l43 43l43 43z" />
    <glyph glyph-name="e" unicode="e" 
d="M127 299v86h258v-86h-258zM127 127v86h344v258h-430v-430h430v86h-344z" />
    <glyph glyph-name="f" unicode="f" 
d="M385 213h86v86h-344v86h344v86h-430v-430h86v172h258z" />
    <glyph glyph-name="g" unicode="g" 
d="M385 41h86v258h-258v-86h172v-86h-258v258h344v86h-430v-430h344z" />
    <glyph glyph-name="h" unicode="h" 
d="M385 41h86v430h-86v-172h-258v172h-86v-430h86v172h258v-172z" />
    <glyph glyph-name="i" unicode="i" 
d="M385 41h86v86h-172v258h172v86h-430v-86h172v-258h-172v-86h344z" />
    <glyph glyph-name="j" unicode="j" 
d="M385 41h86v430h-430v-86h344v-258h-344v-86h344z" />
    <glyph glyph-name="k" unicode="k" 
d="M385 41h86v258h-86v172h-86v-172h-172v172h-86v-430h86v172h258v-172z" />
    <glyph glyph-name="l" unicode="l" 
d="M385 41h86v86h-344v344h-86v-430h344z" />
    <glyph glyph-name="m" unicode="m" 
d="M385 41h86v430h-430v-430h86v344h86v-344h86v344h86v-344z" />
    <glyph glyph-name="n" unicode="n" 
d="M385 41h86v430h-430v-430h86v344h258v-344z" />
    <glyph glyph-name="o" unicode="o" 
d="M385 41h86v258h-86v-172h-258v258h258v-86h86v172h-430v-430h344z" />
    <glyph glyph-name="p" unicode="p" 
d="M385 299h-258v86h258v-86zM385 213h86v258h-430v-430h86v172h258z" />
    <glyph glyph-name="q" unicode="q" 
d="M385 188l-43 43l-43 43l-61 -61l43 -43l43 -43h-197v258h258v-197zM410 41h61v430h-430v-430h369z" />
    <glyph glyph-name="r" unicode="r" 
d="M385 299h-258v86h258v-86zM385 213h86v258h-430v-430h86v172h172v-172h86v172z" />
    <glyph glyph-name="s" unicode="s" 
d="M385 41h86v258h-344v86h344v86h-430v-258h344v-86h-344v-86h344z" />
    <glyph glyph-name="t" unicode="t" 
d="M299 299v86h172v86h-430v-86h172v-344h86v258z" />
    <glyph glyph-name="u" unicode="u" 
d="M385 41h86v430h-86v-344h-258v344h-86v-430h344z" />
    <glyph glyph-name="v" unicode="v" 
d="M471 213v0v86v172h-86v-215v-8l-18 -17l-43 -43l-60 -61h-137v344h-86v-344v-86h258v0l43 43l43 43l43 43z" />
    <glyph glyph-name="w" unicode="w" 
d="M127 471h-86v-430h430v430h-86v-344h-86v344h-86v-344h-86v344z" />
    <glyph glyph-name="x" unicode="x" 
d="M323 249l-5 6l7 6l73 73l73 74l-61 60l-73 -73l-80 -80l-8 8l-73 74l-74 74l-61 -61l74 -74l74 -73l8 -8l-6 -6l-73 -73l-74 -74l61 -60l73 73l73 73l6 6l6 -5l74 -74l73 -74l61 61l-74 74z" />
    <glyph glyph-name="y" unicode="y" 
d="M471 213v258h-86v-172h-258v172h-86v-258h344v-172h86v86v86z" />
    <glyph glyph-name="z" unicode="z" 
d="M213 127h-40l74 64l74 64l75 65l75 65v0v86h-430v-86h298l-74 -64l-75 -65l-74 -64l-75 -65v0v0v-86h430v86h-258z" />
    <glyph glyph-name="A" unicode="A" 
d="M107 406q42 42 101 42q60 0 102 -42l16 16q-49 49 -118 49q-70 0 -117 -49q-49 -49 -49 -117.5t49 -117.5l16 16q-42 42 -42 101.5t42 101.5zM289 388q-34 34 -82 34q-49 0 -83 -34t-34 -82t34 -83l16 16q-27 28 -27 66.5t27 66.5q27 27 67 27q39 0 66 -27zM205 350
q17 0 29 -12l16 18q-20 20 -45 20t-45 -20q-19 -19 -19 -47q0 -26 19 -45l16 16q-12 12 -12 29t12 29q10 12 29 12zM470 147l-78 79l-52 178l-228 -228l126 -41q-4 -12 -4 -20q0 -22 15.5 -37t37.5 -15q24 0 38 17l39 -39zM285 119l24 -23q-7 -10 -22 -10q-13 0 -21.5 8.5
t-8.5 20.5q0 7 3 13l25 -9v0z" />
    <glyph glyph-name="B" unicode="B" 
d="M464 162l-74 75l-48 166v1q-1 0 -1 1v1q-1 0 -1 1l-1 1v0l-1 1q-1 0 -1 1h-1q-1 0 -1 1h-1h-1h-1h-1h-1h-1h-1l-1 -1h-1l-1 -1q-1 0 -1 -1h-1l-218 -218q0 -1 -1 -1v-1l-1 -1v-1q0 -1 -1 -1v-1v-1v-1v-1v-1l1 -1v-2h1v-1l1 -1v-1h1q0 -1 1 -1l1 -1h1h1l120 -40
q-9 -36 23 -55q13 -7 26 -7q18 0 31 11l36 -36q1 -1 2 -1v-1h1q1 -1 3 -1h2q3 0 7 2v1v1h1l102 101q7 8 0 15zM354 68l-67 68q-1 0 -1 1h-1q-1 0 -1 1h-1l-149 49l192 192l43 -151q0 -1 1 -1v-1v-1q1 0 1 -1l1 -1l68 -68zM264 96q-16 12 -12 29l21 -7l21 -21q-12 -10 -30 -1
zM222 345q10 -6 15 3q6 9 -3 16q-41 27 -76 -8q-15 -16 -17.5 -37t9.5 -38q2 -5 9 -5q5 0 6 2q11 5 3 15q-16 24 6 48q23 21 48 4zM272 385q7 9 -3 15q-44 25 -80 20t-63 -32q-26 -26 -30 -62.5t21 -79.5q3 -4 9 -4q4 0 6 2q10 6 3 15q-21 37 -17 65t24 48q21 21 50 25.5
t65 -15.5q9 -7 15 3zM104 407q35 35 83 40.5t105 -30.5q10 -6 15 3q7 9 -2 16q-40 28 -82 33t-75.5 -8t-58.5 -39q-39 -39 -45 -94.5t36 -118.5q3 -5 9 -5q3 0 7 2q9 7 2 16q-26 35 -31 72.5t6 64.5t31 48z" />
    <glyph glyph-name="C" unicode="C" 
d="M357 41h82l-41 49zM345 67l41 47v295q0 30 -17 46t-41 16q-23 0 -40 -16t-17 -46h-22q0 28 -17 45t-40 17t-40.5 -16.5t-17.5 -45.5h23q0 20 10 29.5t25 9.5q14 0 23 -9q11 -11 11 -30h23v-27q10 -6 10 -19q0 -9 -6 -15.5t-16 -6.5q-9 0 -15.5 6.5t-6.5 15.5q0 13 11 19
v27h-68v-27q10 -6 10 -19q0 -9 -6.5 -15.5t-15.5 -6.5t-15.5 6.5t-6.5 15.5q0 13 10 19v27h-72v-368h260v368h-28q0 20 10 29.5t24 9.5q15 0 24 -9q11 -11 11 -30h-18v-342zM411 409v-295l39 -47v342h-39z" />
    <glyph glyph-name="D" unicode="D" 
d="M439 407h-55q0 31 -17 48t-41 17t-41.5 -17t-17.5 -48h-17q0 31 -17.5 48t-41.5 17t-41.5 -17t-17.5 -48h-57q-11 0 -11 -11v-344q0 -11 11 -11h364q12 0 12 11v344q0 11 -12 11zM326 449q14 0 24 -10q12 -12 12 -32h-73q0 20 11 31t26 11zM191 449q15 0 26 -11t11 -31
h-73q0 20 10.5 31t25.5 11zM305 69h-221v318h49v-7q-9 -4 -9 -17q0 -8 5.5 -14t14.5 -6q8 0 13.5 6t5.5 14q0 12 -9 17v7h74v-7q-9 -7 -9 -17q0 -8 6 -14.5t14 -6.5q9 0 15 6.5t6 14.5q0 10 -9 17v7h54v-318zM328 387h36v-272h-1l-35 -36v308zM350 69l26 26l26 -26h-52z
M425 78l-36 38v271h36v-309z" />
    <glyph glyph-name="E" unicode="E" 
d="M120 288q0 -23 -18 -32v118h-20v-118q-19 8 -19 31v87h-19v-86q0 -27 14 -41q10 -10 24 -13v-180h20v180q17 3 28 17.5t11 36.5v86h-21v-86zM177 431q0 -10 7 -17t18 -7h187q11 0 18 7.5t7 17.5q0 20 -22 24h-348v-21h133v-4zM187 54h218l37 59h-292zM417 311v63h-245
v-190q0 -18 13 -31t32 -15h154v1q19 0 32.5 13t13.5 32v26q26 0 40.5 15t14.5 35t-14.5 35.5t-40.5 15.5zM417 231v59q16 0 25 -9t9 -21t-9 -20.5t-25 -8.5z" />
    <glyph glyph-name="F" unicode="F" 
d="M433 118h-268q-7 0 -10 -7q-3 -5 1 -12l34 -44q3 -4 9 -4h201q5 0 9 4l33 44q4 6 1 12q-3 7 -10 7zM394 74h-190l-17 21h224zM134 381q-11 0 -11 -11v-83v-2q0 -22 -18 -31v116q0 11 -12 11q-11 0 -11 -11v-117q-18 7 -18 32v2v83q0 11 -10 11t-10 -11v-85v-3
q0 -27 13 -38q11 -11 25 -14v-169q0 -11 11 -11q12 0 12 11v170q15 4 26 17.5t12 33.5v3v85q0 11 -9 11zM56 440h116q-4 -16 2.5 -25.5t20.5 -9.5q-8 -1 0 -1h198q10 0 17 8.5t7 19.5q0 12 -7 20.5t-17 8.5h-5h-2h-183h-1h-2h-144q-11 0 -11 -10q0 -11 11 -11zM389 440
q6 0 6 -8q0 -7 -8 -7h-185q-9 0 -9 7q0 8 8 8h188zM417 307v51q0 11 -11 11h-214q-10 0 -10 -14v-3v-172q0 -15 14.5 -27t32.5 -12h140q19 0 33 12t15 29v2v22q25 1 39.5 15.5t14.5 34.5t-14 35t-40 16zM367 161h-138q-11 0 -19 7t-8 16v162h192v-161q0 -10 -8 -17t-19 -7z
M417 228v57q32 -1 32 -29q0 -11 -8 -19t-24 -9z" />
    <glyph glyph-name="G" unicode="G" 
d="M471 163q-2 36 -38.5 60t-88.5 20q-50 -4 -85.5 -29.5t-34.5 -59.5q2 -35 38.5 -58t87.5 -21q18 2 30 4l55 -24l-20 35q27 12 42 31.5t14 41.5zM283 252q72 26 127 4q27 25 28 74q2 53 -58.5 90.5t-147.5 30.5q-80 -7 -136 -50.5t-55 -102.5q1 -40 45 -67l-27 -67l92 42
h-2q25 -6 64 -8q25 39 70 54z" />
    <glyph glyph-name="H" unicode="H" 
d="M468 185q-9 32 -47 53q46 46 24 103q-17 42 -68 72.5t-126 29.5h-1h-1h-1h-1q-84 -5 -137.5 -40.5t-66.5 -82.5q-16 -66 44 -107l-24 -55q-3 -6 2 -12q4 -3 8 -3q1 0 2.5 0.5t2.5 0.5l83 36q28 -7 50 -9q0 -1 -0.5 -3t-0.5 -4q-3 -39 27 -66q33 -33 97 -33q10 0 34 2
l58 -24q2 -1 5 -1t8 3q5 6 1 13l-17 34q61 41 45 93zM110 213l1 1v2v1v1v1v1q-2 5 -5 7q-55 32 -41 87q11 42 61.5 75t123.5 34q69 0 115 -26.5t59 -62.5q19 -47 -24 -87q-26 9 -57 9h-1q-40 0 -74.5 -18t-48.5 -45h-3q-1 1 -4 1q-23 0 -43 9h-1q0 1 -1 1h-1h-1h-1h-1h-1h-1
q-1 0 -1 -1l-66 -28zM403 105l-1 -1q-1 0 -1 -1l-1 -1q0 -1 -1 -1v-1v-1l-1 -1v-1v-1v-1v-2h1v-2l8 -16l-33 14q-4 1 -9 0q-79 -10 -113 24q-22 20 -20 49q2 28 35.5 49.5t74.5 21.5h1q39 0 68 -15.5t36 -39.5q11 -39 -44 -73z" />
    <glyph glyph-name="I" unicode="I" 
d="M227 41h-61h-71v51v36v1v27v21q9 1 27.5 5t27.5 6q29 5 46 0q2 -6 12.5 -17t14.5 -14l-2 -28q7 -25 7 -38q0 -6 -2.5 -25.5t1.5 -24.5zM315 133q-23 -10 -47.5 -1t-26.5 8q-3 -5 -2.5 -9t3.5 -17t4 -22q0 -6 -2 -16.5t-2 -19.5t5 -15h80h90v51v53q-11 -2 -21.5 0
t-34 -0.5t-46.5 -11.5zM265 191q0 19 -28 21q-7 2 -19 1l-21 -4q-19 3 -55 -5q-42 -9 -47 -9v63v108h22h5q-8 33 11 64q23 41 73 41q51 0 75 -41q18 -28 10 -65zM290 365h127v-172v-15v-15q-13 -2 -42 -1.5t-35 -3.5q-32 -14 -56.5 -13t-26.5 14q0 2 3 8.5t3 9.5q2 8 2 14z
M260 345q22 41 3 74q-20 31 -57 31q-35 0 -55 -31q-20 -35 -1 -67l57 -114zM206 411q-11 0 -18.5 -8t-7.5 -19q0 -10 8 -18t18 -8q11 0 19 7.5t8 18.5t-8 19t-19 8z" />
    <glyph glyph-name="J" unicode="J" 
d="M204 358q11 0 19 7.5t8 18.5t-8 18.5t-19 7.5t-18.5 -7.5t-7.5 -18.5t7.5 -18.5t18.5 -7.5zM417 353q0 4 -4.5 8.5t-8.5 4.5h-115q8 34 -9 64q-25 42 -76 42q-50 0 -73 -41q-19 -32 -11 -65h-13q-4 0 -8 -4t-4 -9v-303q0 -9 10 -9h302q10 0 10 9v303zM397 340v-173
q-10 -2 -28 -2q-33 0 -56 -9q-29 -12 -50 -2l-2 2q-3 2 -3 8q6 15 6 27q0 16 -25 20q-17 2 -22 1l61 122q2 6 4 6h115zM128 340l67 -133q-15 3 -50 -6q-13 -4 -30 -6v145h13zM149 419q20 31 55 31q39 0 57 -31q20 -32 -2 -75v1l-54 -108l-58 114q-18 34 2 68zM115 174
q13 1 36 7q37 8 47 5q4 -8 8 -11l13 -13v-10q-2 -15 0 -23v-1q1 -1 1 -3.5t1 -3.5q4 -16 2 -40q-3 -11 -1 -22h-107v115zM245 59q-4 6 -1 18q5 29 -3 54q-2 8 1 8q2 1 5 -1q1 0 5 -2q7 -4 14 -5q1 -1 2.5 -1t2.5 -1v1q10 -2 14 -2q12 0 35 7q0 1 1 1t2 1q19 7 47 7
q17 0 27 1v-86h-152z" />
    <glyph glyph-name="M" unicode="M" 
d="M453 504h4h-4zM432 364v-1v1zM483 252l-125 123v-60h-43v19q31 7 31 42q0 18 -13 30.5t-31 12.5t-31 -13t-13 -31q0 -15 10 -27t24 -15v-18h-110v61q12 4 22 16t10 26q0 18 -13 30.5t-31 12.5t-31 -12.5t-13 -30.5q0 -14 9 -25.5t21 -15.5v-62h-62h1h-5q-26 0 -44 -18.5
t-18 -43.5t20 -44.5t46 -19.5h1h112v-50q-12 -5 -21.5 -17t-9.5 -26q0 -19 13.5 -32t32.5 -13q18 0 32 13.5t14 31.5q0 15 -9.5 26.5t-22.5 15.5v54h122v-63zM281 375q0 9 6.5 15t14.5 6q9 0 15 -6t6 -15q0 -8 -6 -14.5t-15 -6.5q-8 0 -14.5 6.5t-6.5 14.5zM149 418
q0 9 6 15t15 6q8 0 14.5 -6t6.5 -15q0 -8 -6.5 -14.5t-14.5 -6.5q-9 0 -15 6.5t-6 14.5zM90 213q-16 0 -28 11.5t-12 28.5t12 28.5t28 11.5t28 -11.5t12 -28.5t-12 -28.5t-28 -11.5zM245 96q0 -10 -7 -16.5t-16 -6.5q-10 0 -16.5 6.5t-6.5 16.5q0 9 6.5 16t16.5 7q9 0 16 -7
t7 -16z" />
    <glyph glyph-name="N" unicode="N" 
d="M483 256l-94 95q-3 3 -7 3q-1 1 -5 1q-11 0 -11 -11v-29h-46v20q32 8 32 42q0 18 -13 30.5t-31 12.5t-30.5 -12.5t-12.5 -30.5q0 -15 10.5 -27.5t24.5 -15.5v-19h-113v63q12 4 22 16t10 26q0 18 -13 31t-31 13q-19 0 -32 -13t-13 -31q0 -32 31 -42v-63h-74h-1
q-25 -2 -43 -21t-18 -44q0 -26 18.5 -44.5t44.5 -18.5h9h115v-50q-12 -5 -21.5 -17t-9.5 -26q0 -20 13.5 -33t32.5 -13t32 13.5t13 32.5q0 34 -34 44v49h128v-31q0 -7 6 -11q3 -3 9 -3q4 0 8 4l94 94q9 9 0 16zM287 377q0 8 6.5 14.5t14.5 6.5q9 0 15.5 -6.5t6.5 -14.5
q0 -9 -6.5 -15.5t-15.5 -6.5q-8 0 -14.5 6.5t-6.5 15.5zM153 420q0 9 6 15t15 6t15 -6t6 -15q0 -8 -6 -14.5t-15 -6.5t-15 6.5t-6 14.5zM250 94q0 -10 -6.5 -16.5t-16.5 -6.5t-16.5 6.5t-6.5 16.5q0 9 6.5 16t16.5 7t16.5 -7t6.5 -16zM48 250q0 16 11.5 28.5t27.5 13.5h6
q15 -2 25.5 -13.5t10.5 -27.5q0 -17 -12 -29t-29 -12q-16 0 -28 12t-12 28zM389 177v17q0 7 -6 12q-4 4 -11 4h-236q15 17 15 41q0 21 -14 41h235q9 0 12 3q5 5 5 11v14l72 -72z" />
    <glyph glyph-name="K" unicode="K" 
d="M323 379h-47l-27 30q8 10 8 23q0 16 -11.5 27t-27.5 11t-27.5 -11.5t-11.5 -27.5t11.5 -27t27.5 -11q5 0 13 2l16 -17h29l47 -52l-15 -15l-61 68h-168v-287q0 -21 16 -36t38 -15h-1h40h205q29 0 42.5 11.5t13.5 40.5v286h-110zM218 414q-7 0 -12 5t-5 12t5 12t12 5t12 -5
t5 -12t-5 -12t-12 -5zM161 311v-218q0 -12 -8 -20.5t-21 -8.5t-21.5 8.5t-8.5 20.5v265h18v-266h23v266h18v-47zM220 261h156v-23h-156v23zM328 125h-108v23h108v-23zM220 182v23h156v-23h-156z" />
    <glyph glyph-name="L" unicode="L" 
d="M365 256h-137q-11 0 -11 -10t11 -10h137q11 0 11 10t-11 10zM365 202h-137q-11 0 -11 -10t11 -10h137q11 0 11 10t-11 10zM315 148h-87q-11 0 -11 -10t11 -10h87q11 0 11 10t-11 10zM430 80v5v280q0 5 -4 9q-5 5 -10 5h-142l-27 30q7 12 7 23q0 16 -11 27t-27 11
t-27.5 -11t-11.5 -27t11.5 -27.5t27.5 -11.5q6 0 14 3l15 -17h-154q-7 0 -10 -6q-2 -4 -2 -8v-272v-7v-2q0 -40 39 -43h270h5h1q31 1 36 33v3v3zM199 432q0 7 5 12t12 5t12 -5t5 -12t-5 -12t-12 -5t-12 5t-5 12zM97 89v269h23v-259q0 -11 11 -11q10 0 10 10v260h23v-271
q0 -10 -6.5 -19t-20.5 -9h-11q-29 0 -29 30zM391 59h-217q8 8 8 27v272h81l39 -44q3 -3 8 -3q4 0 7 3q7 7 1 15l-27 29h119v-281q-7 -16 -19 -18z" />
    <glyph glyph-name="O" unicode="O" 
d="M305 256h-192v84h192v-84zM410 120h-310v-79h310v79zM305 120v136h-85v-136h85zM258 378q-20 0 -34 14t-14 34t14 34t34 14t34 -14t14 -34t-14 -34t-34 -14zM258 451q-10 0 -17.5 -7.5t-7.5 -17.5q0 -11 7.5 -18.5t17.5 -7.5t18 8t8 18t-7.5 17.5t-18.5 7.5z" />
    <glyph glyph-name="P" unicode="P" 
d="M402 41h-286q-11 0 -11 11v58q0 11 11 11h106v134h-95q-11 0 -11 11v63q0 11 11 11h168q11 0 11 -11v-209h96q11 0 11 -11v-57q0 -11 -11 -11zM127 63h264v35h-96q-11 0 -11 11v208h-146v-40h95q11 0 11 -11v-156q0 -11 -11 -11h-106v-36zM261 376q-19 0 -33 14t-14 34
t14 34t33 14q20 0 34 -14t14 -34t-14 -34t-34 -14zM261 450q-10 0 -17.5 -7.5t-7.5 -18.5q0 -10 7 -17.5t18 -7.5t18.5 7t7.5 18t-7.5 18.5t-18.5 7.5z" />
    <glyph glyph-name="Q" unicode="Q" 
d="M370 420v26h101v25h-127v-126h26v50h101v25h-101zM167 345v126h-25v-51h-76v51h-25v-126h25v50h76v-50h25zM294 370h-76v76h76v-76zM319 471h-126v-126h126v126zM167 192v76h-101v25h101v25h-126v-76h101v-25h-101v-25h126zM319 293v25h-127v-25h51v-101h25v101h51z
M445 217h-76v25h76v-25zM471 192v126h-127v-25h101v-25h-101v-76h127zM319 143v25h-278v-25h50v-101h26v101h126v-101h25v101h51z" />
    <glyph glyph-name="R" unicode="R" 
d="M41 471h128v-128h-128v128zM41 323h128v-131h-128v131zM343 471h128v-128h-128v128zM343 323h128v-131h-128v131zM189 471h134v-128h-134v128zM189 323h134v-131h-134v131zM189 172h134v-131h-134v131zM41 172h128v-131h-128v131z" />
    <glyph glyph-name="S" unicode="S" 
d="M41 471h128v-125h-128v125zM41 323h128v-131h-128v131zM41 166h128v-125h-128v125zM343 471h128v-125h-128v125zM343 323h128v-131h-128v131zM343 166h128v-125h-128v125zM189 471h131v-125h-131v125zM189 323h131v-131h-131v131zM189 166h131v-125h-131v125z" />
    <glyph glyph-name="T" unicode="T" 
d="M41 471h87v-87h-87v87zM384 471h87v-87h-87v87zM212 471h88v-87h-88v87zM41 128h87v-87h-87v87zM212 128h88v-87h-88v87zM41 300h87v-88h-87v88zM384 300h87v-88h-87v88zM212 300h88v-88h-88v88z" />
    <glyph glyph-name="U" unicode="U" 
d="M41 471h87v-87h-87v87zM384 471h87v-87h-87v87zM212 471h88v-87h-88v87zM41 128h87v-87h-87v87zM384 128h87v-87h-87v87zM212 128h88v-87h-88v87zM41 300h87v-88h-87v88zM384 300h87v-88h-87v88zM212 300h88v-88h-88v88z" />
    <glyph glyph-name="V" unicode="V" 
d="M41 471h430v-128h-430v128zM41 317h430v-125h-430v125zM41 166h279v-125h-279v125z" />
    <glyph glyph-name="W" unicode="W" 
d="M41 471h430v-87h-430v87zM41 128h279v-87h-279v87zM41 300h430v-88h-430v88z" />
    <glyph glyph-name="X" unicode="X" 
d="M195 471h276v-128h-276v128zM41 471h128v-128h-128v128zM195 317h276v-125h-276v125zM41 317h128v-125h-128v125zM197 166h274v-125h-274v125zM41 166h128v-125h-128v125z" />
    <glyph glyph-name="Y" unicode="Y" 
d="M41 471h87v-87h-87v87zM212 471h259v-87h-259v87zM41 128h87v-87h-87v87zM212 128h259v-87h-259v87zM41 300h87v-88h-87v88zM212 300h259v-88h-259v88z" />
    <glyph glyph-name="Z" unicode="Z" 
d="M274 256l194 194q9 9 0 18t-18 0l-194 -194l-195 194q-9 9 -18 0t0 -18l195 -194l-195 -195q-9 -9 0 -18q5 -3 9 -3q6 0 9 3l195 195l194 -195q4 -3 9 -3q6 0 9 3q9 9 0 18z" />
    <glyph glyph-name="plus" unicode="+" 
d="M471 300h-171v171h-88v-171h-171v-88h171v-171h88v171h171v88z" />
    <glyph glyph-name="hyphen" unicode="-" 
d="M41 300h430v-88h-430v88z" />
    <glyph glyph-name="less" unicode="&#x3c;" 
d="M329 41l-215 215l53 53l162 162l53 -53l-162 -162l162 -162z" />
    <glyph glyph-name="greater" unicode="&#x3e;" 
d="M182 41l215 215l-53 53l-162 162l-53 -53l162 -162l-162 -162z" />
    <glyph glyph-name="underscore" unicode="_" 
d="M471 337l-215 -215l-53 53l-162 162l53 53l162 -162l162 162z" />
    <glyph glyph-name="asciicircum" unicode="^" 
d="M471 175l-215 215l-53 -53l-162 -162l53 -53l162 162l162 -162z" />
    <glyph glyph-name="bracketleft" unicode="[" 
d="M420 51l-204 205l50 50l154 154l51 -50l-154 -154l154 -154zM245 51l-204 205l50 50l154 154l51 -50l-154 -154l154 -154z" />
    <glyph glyph-name="period" unicode="." 
d="M51 420l205 -204l50 50l154 154l-50 51l-154 -154l-154 154zM51 245l205 -204l204 204l-50 51l-154 -154l-154 154z" />
    <glyph glyph-name="bracketright" unicode="]" 
d="M91 51l205 205l-51 50l-154 154l-50 -50l154 -154l-154 -154zM266 51l205 205l-51 50l-154 154l-50 -50l154 -154l-154 -154z" />
    <glyph glyph-name="quotesingle" unicode="'" 
d="M51 91l205 205l50 -51l154 -154l-50 -50l-154 154l-154 -154zM51 266l205 205l50 -51l154 -154l-50 -50l-154 154l-154 -154z" />
    <glyph glyph-name="exclam" unicode="!" 
d="M471 256l-215 -215l-53 53l-162 162l53 53l118 -118v280h88v-280l118 118z" />
    <glyph glyph-name="bar" unicode="|" 
d="M471 257l-215 215l-53 -53l-162 -162l53 -53l118 118v-281h88v281l118 -118z" />
    <glyph glyph-name="ampersand" unicode="&#x26;" 
d="M471 110v292v11.5v11.5t-0.5 9t-2 9t-4 7t-6.5 7q-11 8 -20.5 10t-35.5 1h-294h-14h-14.5t-10.5 -1t-11.5 -3.5t-7.5 -6.5q-2 -3 -4 -5.5t-3 -6.5t-1.5 -6.5t-0.5 -8v-9v-11v-11.5v-291v-10.5v-10.5v-9t1 -8.5t2 -7t3 -7t5 -5.5q10 -9 58 -9h294h10.5h10.5h9t8.5 1t7 2
t7 3t5.5 5q9 10 9 58zM422 402v-54q0 -13 -14 -13h-46q-13 0 -17.5 4.5t-4.5 17.5v48q1 12 11 12h57q11 0 13 -8q1 -2 1 -7zM256 336q34 0 58.5 -24.5t24.5 -58.5t-24.5 -58.5t-58.5 -24.5q-35 0 -59.5 24.5t-24.5 58.5t24.5 58.5t59.5 24.5zM404 90h-294q-20 0 -20 18v179
h35q-4 -22 -4 -34q0 -56 39.5 -95t95.5 -39t95 39.5t39 94.5q0 12 -4 34h36v-177q0 -20 -18 -20z" />
    <glyph glyph-name="percent" unicode="%" 
d="M204 42v202h-53v72h53v62q0 40 26.5 67t77.5 27l51 -3l-1 -68h-47q-18 0 -24 -7.5t-6 -24.5v-1v-1v-1v0v0v0v0v0v1v0v0v1v0v0v1v0v0v0v0v0v0v0v0v-1v0v0v-1v0v-1v0v-1v-1v0v-1v-1v-1v-1v-1v-1v-1v-1v-1v-1v-1v-1v-1v-1v-1v-1v-1v-1v-1v-1v-1v-1v-1v-1v-1v-1v-1v-1v-1v-1
v-1v-1v-1v-1v-1v-1v-1v-1v-1v-9h79l-4 -72h-75v-202h-77z" />
    <glyph glyph-name="numbersign" unicode="#" 
d="M474 392q-25 -11 -52 -14q29 17 40 49q-27 -15 -57 -21q-28 28 -66 28q-37 0 -63 -26.5t-26 -63.5q0 -6 2 -20q-113 6 -185 94q-12 -24 -12 -45q0 -48 40 -75q-21 0 -40 11v-1q0 -32 20 -57t51 -31q-10 -3 -23 -3q-7 0 -17 2q8 -27 31 -44.5t53 -18.5q-49 -38 -112 -38
q-4 0 -11 0.5t-10 0.5q64 -40 137 -40q116 0 185.5 79t69.5 176v12q27 19 45 46z" />
    <glyph glyph-name="asterisk" unicode="*" 
d="M468 209q0 19 -10 29q12 12 12 30q0 16 -11 28t-27 13q-1 1 -2 1h-113v108q0 17 -12 29.5t-29 12.5q-16 0 -28 -12.5t-12 -29.5q0 -103 -39 -103q-10 0 -18 -5v2q0 5 -3.5 9t-8.5 4h-113q-13 0 -13 -13v-246q0 -12 13 -12h113q12 0 12 12v10q20 -22 53 -22h176
q16 0 27.5 11.5t11.5 28.5q0 13 -6 22q19 12 19 35q0 15 -8 26q16 11 16 32zM154 79h-87v221h87v-221zM407 79h-174q-22 0 -37.5 15.5t-15.5 37.5v3l-1 2v135q0 17 18 17q64 0 64 129q0 6 4.5 11t10.5 5q7 0 11.5 -5.5t4.5 -11.5v-120q0 -13 13 -13h1h1h122q16 0 16 -16
q0 -12 -14 -17h-1l-1 -1q-1 0 -1 -1h-1l-1 -1l-1 -1l-1 -1v-1l-1 -1v-1v-1q-1 0 -1 -1v-1v-1v-1v-2q1 0 1 -1v-1q0 -1 1 -1q0 -1 1 -2l1 -1l1 -1l1 -1h1q0 -1 2 -1q12 -4 12 -18q0 -11 -18 -18h-1q-1 0 -2 -1h-1l-1 -1q0 -1 -1 -1v-1l-2 -2v-1q0 -1 -1 -2v-1v-1v-2v-1
q1 -1 1 -2v0q0 -1 0.5 -1t0.5 -1v-1q1 0 1 -1h1q0 -1 0.5 -1t0.5 -1l2 -1h1q11 -6 11 -17q0 -7 -5 -12t-12 -5h-2q-8 2 -13 -6q-6 -12 5 -17q14 -8 14 -17q0 -6 -4.5 -10.5t-10.5 -4.5z" />
    <glyph glyph-name="asciitilde" unicode="~" 
d="M120 227q-23 0 -39.5 16t-16.5 39t16.5 39.5t39.5 16.5h2h1h131h3q22 0 38 -16t16 -39t-15.5 -38.5t-38.5 -15.5q-13 0 -13 -13t13 -13q33 0 56.5 23.5t23.5 56.5q0 32 -22 55t-53 25l-1 1h-2h-136h-1l-2 -1q-34 0 -57.5 -23.5t-23.5 -57.5q0 -33 23.5 -56.5t57.5 -23.5
q12 0 12 12q0 13 -12 13zM390 292q-13 0 -13 -13t13 -13q23 0 39 -16t16 -39t-16.5 -39t-38.5 -16h-1h-2h-134h-1q-23 1 -39 17.5t-16 39.5t17 39.5t40 16.5q13 0 13 13t-13 13q-34 0 -58 -24t-24 -58t24 -58.5t58 -24.5q1 0 2 1h131q1 -1 3 -1q33 0 57 24t24 57
q0 34 -24 57.5t-57 23.5z" />
    <glyph glyph-name="equal" unicode="=" 
d="M398 329q-34 0 -55 -26l-159 79q3 9 3 18q0 29 -21.5 50.5t-51.5 21.5t-51 -21.5t-21 -50.5q0 -30 21 -51.5t51 -21.5q38 0 60 32l156 -78q-4 -11 -4 -25q0 -13 5 -26l-156 -78q-21 33 -61 33q-30 0 -51 -21t-21 -51t21 -51.5t51 -21.5t51.5 21.5t21.5 51.5q0 5 -2 15
l159 80q22 -24 54 -24q30 0 51.5 21t21.5 51t-21.5 51.5t-51.5 21.5zM114 353q-20 0 -33.5 13.5t-13.5 33.5q0 19 14 32.5t33 13.5t33 -13.5t14 -32.5q0 -20 -13.5 -33.5t-33.5 -13.5zM114 66q-20 0 -33.5 14t-13.5 33t13.5 33t33.5 14t33.5 -14t13.5 -33t-13.5 -33
t-33.5 -14zM398 209q-19 0 -32.5 14t-13.5 33t13.5 33t32.5 14q20 0 33.5 -13.5t13.5 -33.5t-13.5 -33.5t-33.5 -13.5z" />
    <glyph glyph-name="colon" unicode=":" 
d="M376 451h-240q-32 0 -53.5 -20.5t-23.5 -52.5v-1v-163v0q0 -29 18.5 -51t45.5 -27l-21 -73v-1v-1v-1v-2v-1v-1q1 0 1 -1v-1h1q0 -1 1 -2l1 -1l2 -2h2v-1h1h1h2h1v1h-1q1 -1 2 -1l1 1h1h1l1 1l137 83h119q31 0 54 25t23 59v160q0 33 -22 53.5t-55 20.5zM376 156h-123h-2
h-1h-1l-1 -1h-1l-113 -69l16 55v5q0 12 -12 12q-23 0 -39 16.5t-16 39.5h-1v161q0 23 15.5 38t38.5 15h240q23 0 37.5 -14t14.5 -37v-160q0 -23 -15 -42t-37 -19zM187 292q0 -7 -5.5 -12t-12.5 -5t-12.5 5t-5.5 12q0 8 5.5 13t12.5 5t12.5 -5t5.5 -13zM275 292
q0 -7 -5.5 -12t-12.5 -5t-12.5 5t-5.5 12q0 8 5.5 13t12.5 5t12.5 -5t5.5 -13zM363 292q0 -7 -5.5 -12t-12.5 -5t-12.5 5t-5.5 12q0 8 5.5 13t12.5 5t12.5 -5t5.5 -13z" />
    <glyph glyph-name="at" unicode="@" 
d="M458 410h-404q-13 0 -13 -13v-289q0 -13 13 -13h404q13 0 13 13v289q0 13 -13 13zM255 238l-166 146h333zM67 369l180 -157v-1h1l1 -1h1q1 -1 2 -1q0 -1 1 -1t1 -0.5t1 -0.5v0q1 0 3 1v1h2l1 1q1 0 1 1h1q0 1 1 1l181 159v-251h-378v249z" />
    <glyph glyph-name="slash" unicode="/" 
d="M331 471q-59 0 -100.5 -41.5t-41.5 -99.5q0 -50 32 -90l-177 -177q-9 -9 0 -18q6 -4 9 -4q5 0 9 4l177 177q40 -34 92 -34q58 0 99.5 41.5t41.5 100.5q0 58 -41 99.5t-100 41.5zM331 214q-50 0 -83 35v0q-33 35 -33 81q0 47 34 81t82 34t82 -34t34 -81q0 -48 -34 -82
t-82 -34z" />
  </font>
</defs>
</svg>
